<?xml version="1.0" standalone="no"?>
<!DOCTYPE svg PUBLIC "-//W3C//DTD SVG 20010904//EN"
 "http://www.w3.org/TR/2001/REC-SVG-20010904/DTD/svg10.dtd">
<svg version="1.0" xmlns="http://www.w3.org/2000/svg"
 width="700.000000pt" height="700.000000pt" viewBox="0 0 700.000000 700.000000"
 preserveAspectRatio="xMidYMid meet">
<metadata>
Created by potrace 1.14, written by Peter Selinger 2001-2017
</metadata>
<g transform="translate(0.000000,700.000000) scale(0.100000,-0.100000)"
fill="#000000" stroke="none">
<path d="M3830 5911 c-317 -118 -546 -325 -689 -620 -49 -102 -56 -94 -56 64
1 119 17 199 61 294 13 30 22 56 20 59 -7 7 -90 -43 -168 -100 -90 -66 -182
-168 -242 -266 -51 -86 -112 -246 -122 -324 -4 -27 -10 -48 -15 -48 -17 0 -51
118 -56 198 -3 45 -9 82 -12 82 -16 -2 -86 -103 -121 -175 -57 -116 -82 -219
-89 -360 l-6 -120 -21 40 c-31 58 -54 141 -54 197 0 26 -4 48 -9 48 -13 0
-109 -113 -174 -202 -100 -141 -196 -362 -228 -529 -6 -35 -15 -67 -18 -71 -4
-5 -33 1 -64 12 -125 44 -302 32 -431 -30 -137 -65 -264 -224 -307 -385 -30
-109 -32 -320 -5 -415 43 -147 124 -288 222 -385 179 -176 386 -224 640 -150
18 6 27 -3 59 -57 21 -34 54 -85 74 -113 l36 -49 6 -151 c9 -218 55 -370 161
-536 39 -60 138 -182 144 -177 2 2 -3 28 -11 58 -18 66 -19 150 -4 205 l11 40
24 -81 c13 -45 35 -107 49 -139 29 -66 122 -210 154 -239 l21 -19 0 104 1 104
34 -70 c83 -169 253 -338 430 -427 193 -98 473 -124 678 -64 268 79 451 228
585 475 l40 74 7 -47 c4 -26 4 -70 1 -99 l-7 -51 22 19 c69 63 174 255 206
376 9 38 21 69 25 69 20 0 23 -210 3 -265 -11 -33 96 85 142 158 58 89 96 172
129 282 22 75 27 116 32 244 l5 154 44 65 c24 36 55 87 69 114 19 38 29 48 42
43 51 -19 147 -35 218 -35 209 0 407 115 538 313 103 156 140 275 140 457 0
147 -14 213 -77 340 -66 136 -193 247 -337 296 -79 27 -251 25 -340 -4 -35
-12 -65 -20 -66 -19 0 1 -9 36 -18 77 -39 164 -120 337 -225 478 -62 83 -212
231 -331 327 -111 88 -149 123 -204 185 -80 91 -136 229 -136 338 0 35 0 35
-21 16 -65 -59 -115 -221 -106 -343 l6 -74 -35 34 c-85 82 -188 264 -220 389
-31 118 -17 314 31 423 9 22 4 21 -85 -12z m629 -1906 c102 -24 194 -78 252
-148 154 -184 198 -450 108 -643 l-23 -49 -8 40 c-5 22 -19 53 -32 70 l-24 29
1 -104 c1 -163 -35 -271 -132 -394 -61 -78 -121 -119 -215 -147 -29 -8 -29 -7
14 36 24 25 41 45 36 45 -4 0 -44 -9 -89 -21 -172 -44 -330 -4 -442 112 -28
29 -41 48 -30 44 61 -24 131 -45 149 -45 16 0 12 6 -19 26 -46 31 -115 94
-115 106 0 5 24 -4 53 -19 68 -34 187 -43 268 -19 111 32 205 136 230 255 9
42 9 75 1 135 -7 44 -10 81 -8 83 2 2 29 -10 61 -27 71 -37 80 -32 80 53 0
105 -56 157 -167 157 -35 0 -70 -8 -103 -24 -55 -26 -249 -170 -453 -339
l-134 -110 -33 16 c-28 13 -37 26 -49 68 -9 29 -16 62 -16 73 0 12 -4 27 -9
35 -6 9 -15 -11 -27 -64 -22 -94 -39 -118 -84 -118 -40 0 -65 26 -81 86 -6 23
-17 60 -23 82 l-13 40 -12 -77 c-7 -46 -20 -87 -32 -102 -37 -47 -62 -37 -215
90 -214 177 -394 312 -443 329 -46 16 -107 19 -160 9 -68 -14 -121 -102 -107
-176 12 -63 18 -65 84 -30 l59 31 -1 -117 c-1 -109 1 -121 28 -179 31 -69 88
-128 158 -165 37 -20 57 -23 153 -23 105 0 113 2 167 32 l58 31 -20 -28 c-20
-29 -67 -72 -110 -102 l-25 -18 30 6 c17 4 57 17 89 30 l59 23 -59 -60 c-36
-37 -84 -72 -124 -92 -61 -30 -71 -32 -170 -31 -85 0 -116 5 -163 23 -32 13
-61 20 -65 17 -3 -4 14 -26 38 -51 l44 -44 -40 10 c-199 54 -344 283 -344 542
0 90 0 90 -20 72 -11 -10 -26 -39 -33 -63 l-13 -45 -21 49 c-35 84 -46 150
-40 253 8 163 80 325 186 423 94 86 185 118 337 118 145 0 260 -49 421 -179
137 -110 340 -321 383 -398 19 -35 37 -63 40 -63 3 0 21 30 40 68 70 137 393
431 578 526 50 26 170 55 227 55 28 1 79 -6 114 -14z m-2756 -188 c29 -15 67
-42 86 -61 l33 -34 -44 -7 c-88 -14 -181 -73 -214 -136 -24 -47 -19 -59 26
-59 50 0 138 -19 146 -31 3 -6 -13 -30 -36 -55 -23 -25 -49 -62 -58 -82 -21
-49 -21 -184 0 -233 l16 -36 69 4 c51 4 77 1 99 -10 33 -17 74 -54 74 -66 0
-4 -23 -18 -52 -32 -44 -20 -67 -24 -152 -24 -90 0 -107 3 -156 27 -165 81
-286 317 -265 518 17 161 77 264 187 320 56 28 70 31 126 27 38 -3 82 -14 115
-30z m3850 -5 c62 -34 118 -104 142 -176 22 -66 31 -236 16 -307 -30 -141
-136 -285 -249 -341 -63 -31 -73 -33 -172 -33 -91 0 -111 3 -152 24 -27 14
-48 27 -48 31 0 9 52 56 77 69 27 14 140 15 148 1 13 -21 25 -8 40 42 35 118
11 235 -64 321 -18 20 -30 41 -26 46 9 15 74 31 127 31 26 0 50 5 53 11 12 18
-49 103 -98 136 -28 19 -67 35 -95 39 -77 11 -79 16 -23 67 68 60 117 78 204
72 52 -3 81 -11 120 -33z m-2693 -564 c44 -35 80 -71 80 -80 0 -40 -93 -52
-140 -18 -16 11 -34 36 -40 56 -13 37 -6 104 10 104 6 0 46 -28 90 -62z m1374
46 c3 -9 6 -34 6 -56 0 -56 -51 -108 -107 -108 -38 0 -83 22 -83 40 0 12 152
139 166 140 7 0 15 -7 18 -16z m-659 -415 c119 -22 262 -108 387 -233 111
-111 206 -261 252 -399 43 -128 46 -346 7 -467 -78 -243 -344 -460 -596 -487
l-50 -5 -22 84 c-30 117 -51 167 -63 148 -10 -15 -37 -102 -60 -187 -9 -37
-14 -43 -38 -43 -47 0 -170 39 -251 79 -394 199 -515 668 -274 1060 122 197
324 373 500 436 76 27 121 30 208 14z"/>
<path d="M3181 2594 c-24 -31 -26 -53 -8 -97 18 -42 37 -57 84 -64 27 -4 47
-16 69 -42 29 -32 34 -35 60 -26 87 31 46 148 -76 223 -67 39 -101 41 -129 6z"/>
<path d="M3684 2592 c-62 -46 -112 -107 -120 -148 -6 -33 -4 -40 20 -61 36
-31 61 -29 87 6 13 18 34 32 55 36 19 3 50 20 69 37 30 26 35 36 35 73 0 35
-5 48 -26 64 -36 29 -74 26 -120 -7z"/>
<path d="M3377 1880 c-139 -24 -310 -99 -353 -155 -29 -39 -31 -84 -3 -119 28
-35 69 -34 124 4 59 41 128 66 232 86 151 28 293 7 455 -68 102 -47 130 -46
155 7 35 74 -19 133 -176 194 -137 53 -305 72 -434 51z"/>
</g>
</svg>
